<svg width="183" height="51" viewBox="0 0 183 51" fill="none" xmlns="http://www.w3.org/2000/svg">
<path d="M140.483 15.4092C139.457 15.4092 138.624 16.2411 138.624 17.2672C138.624 18.2932 139.457 19.125 140.483 19.125C141.51 19.125 142.342 18.2932 142.342 17.2672C142.342 16.2411 141.51 15.4092 140.483 15.4092Z" fill="#222222"/>
<path d="M138.916 21.1286C138.754 21.1286 138.624 21.2591 138.624 21.42V35.8093C138.624 35.9702 138.754 36.1007 138.916 36.1007H142.051C142.211 36.1007 142.342 35.9702 142.342 35.8093V21.42C142.342 21.2591 142.211 21.1286 142.051 21.1286H138.916Z" fill="#222222"/>
<path fill-rule="evenodd" clip-rule="evenodd" d="M115.923 31.493C115.988 31.3074 115.85 31.113 115.653 31.113H112.161C112.067 31.113 111.978 31.1592 111.925 31.2365C111.255 32.2082 110.198 32.8261 109.017 32.8261C107.382 32.8261 105.977 31.6361 105.526 29.9709H116.042C116.188 29.9709 116.31 29.8612 116.326 29.7164C116.358 29.4251 116.374 29.1289 116.374 28.8288C116.374 24.5846 113.094 21.1197 109.017 21.1197C104.942 21.1197 101.661 24.5846 101.661 28.8288C101.661 33.0729 104.942 36.5378 109.017 36.5378C112.194 36.5378 114.891 34.4302 115.923 31.493ZM109.017 24.8315C110.408 24.8315 111.631 25.6904 112.244 26.9729H105.79C106.404 25.6904 107.627 24.8315 109.017 24.8315Z" fill="#222222"/>
<path fill-rule="evenodd" clip-rule="evenodd" d="M156.048 21.1286C155.887 21.1286 155.756 21.2591 155.756 21.42V22.1815C154.665 21.5122 153.394 21.1286 152.038 21.1286C147.972 21.1286 144.675 24.578 144.675 28.8332C144.675 33.0884 147.972 36.5378 152.038 36.5378C153.394 36.5378 154.665 36.1541 155.756 35.4849V35.8093C155.756 35.9702 155.887 36.1007 156.048 36.1007H159.11C159.271 36.1007 159.402 35.9702 159.402 35.8093V28.8375C159.402 28.836 159.402 28.8346 159.402 28.8332C159.402 28.8317 159.402 28.8303 159.402 28.8289V21.42C159.402 21.2591 159.271 21.1286 159.11 21.1286H156.048ZM148.281 28.8332C148.281 26.6302 149.955 24.8443 152.019 24.8443C154.083 24.8443 155.756 26.6302 155.756 28.8332C155.756 31.0363 154.083 32.8221 152.019 32.8221C149.955 32.8221 148.281 31.0363 148.281 28.8332Z" fill="#222222"/>
<path d="M52.8544 35.8181C52.8544 35.9791 52.9849 36.1095 53.146 36.1095H56.2769C56.4379 36.1095 56.5685 35.9791 56.5685 35.8181V29.3324L58.445 27.4571L65.6222 36.0053C65.6776 36.0713 65.7594 36.1094 65.8456 36.1094H69.9327C70.1804 36.1094 70.3153 35.8203 70.1561 35.6306L61.0813 24.8225L70.0026 15.9068C70.1863 15.7232 70.0562 15.4092 69.7963 15.4092H65.3686C65.2913 15.4092 65.2171 15.4399 65.1624 15.4946L56.5685 24.0832V15.7007C56.5685 15.5397 56.4379 15.4092 56.2769 15.4092H53.146C52.9849 15.4092 52.8544 15.5397 52.8544 15.7007V35.8181Z" fill="#222222"/>
<path d="M70.5696 21.8206C70.5696 21.6597 70.7002 21.5292 70.8613 21.5292H73.9961C74.1571 21.5292 74.2877 21.6597 74.2877 21.8206V30.0717C74.2877 31.5907 75.5198 32.8222 77.0397 32.8222C78.5596 32.8222 79.7918 31.5907 79.7918 30.0717V21.8206C79.7918 21.6597 79.9224 21.5292 80.0834 21.5292H83.2182C83.3793 21.5292 83.5098 21.6597 83.5098 21.8206V35.8092C83.5098 35.9702 83.3793 36.1007 83.2182 36.1007H80.0834C79.9224 36.1007 79.7918 35.9702 79.7918 35.8092V35.6126C78.8634 36.1987 77.7634 36.5378 76.5841 36.5378C73.2624 36.5378 70.5696 33.8468 70.5696 30.5272V21.8206Z" fill="#222222"/>
<path fill-rule="evenodd" clip-rule="evenodd" d="M86.0979 15.4092C85.9369 15.4092 85.8063 15.5397 85.8063 15.7007V35.8092C85.8063 35.9702 85.9369 36.1007 86.0979 36.1007H89.2328C89.3938 36.1007 89.5244 35.9702 89.5244 35.8092V35.3534C90.6323 36.1037 91.9448 36.5378 93.3517 36.5378C97.3176 36.5378 100.533 33.0884 100.533 28.8332C100.533 24.578 97.3176 21.1286 93.3517 21.1286C91.9448 21.1286 90.6323 21.5627 89.5244 22.313V15.7007C89.5244 15.5397 89.3938 15.4092 89.2328 15.4092H86.0979ZM89.5244 28.8332C89.5244 31.0363 91.1563 32.8222 93.1694 32.8222C95.1827 32.8222 96.8147 31.0363 96.8147 28.8332C96.8147 26.6302 95.1827 24.8442 93.1694 24.8442C91.1563 24.8442 89.5244 26.6302 89.5244 28.8332Z" fill="#222222"/>
<path fill-rule="evenodd" clip-rule="evenodd" d="M168.041 21.1286C164.074 21.1286 160.859 24.578 160.859 28.8332C160.859 33.0884 164.074 36.5378 168.041 36.5378C169.458 36.5378 170.781 36.0968 171.893 35.3357H171.918L171.854 36.4832C171.854 38.0349 169.997 39.3671 168.362 39.3671C167.181 39.3671 166.124 38.7497 165.454 37.7785C165.401 37.7012 165.313 37.6549 165.22 37.6549H161.726C161.529 37.6549 161.391 37.8494 161.456 38.0349C162.489 40.9704 165.185 43.0768 168.362 43.0768C172.066 43.0768 175.602 40.2536 175.602 36.2282V35.3357L175.586 35.3354V21.8571C175.586 21.6961 175.455 21.5657 175.294 21.5657H172.16C171.999 21.5657 171.868 21.6961 171.868 21.8571V22.313C170.76 21.5627 169.447 21.1286 168.041 21.1286ZM168.222 32.8221C170.235 32.8221 171.866 31.0381 171.868 28.8367V28.8297C171.866 26.6282 170.235 24.8443 168.222 24.8443C166.21 24.8443 164.578 26.6302 164.578 28.8332C164.578 31.0363 166.21 32.8221 168.222 32.8221Z" fill="#222222"/>
<path fill-rule="evenodd" clip-rule="evenodd" d="M122.221 19.125V32.385H126.45C129.832 32.385 132.573 29.645 132.573 26.265V25.245C132.573 21.865 129.832 19.125 126.45 19.125H122.221ZM118.795 15.4092C118.634 15.4092 118.503 15.5397 118.503 15.7007V35.8092C118.503 35.9702 118.634 36.1007 118.795 36.1007H126.45C131.884 36.1007 136.292 31.6971 136.292 26.265V25.245C136.292 19.8129 131.884 15.4092 126.45 15.4092H118.795Z" fill="#222222"/>
<path d="M30.0724 7.28574C30.5756 7.28574 30.9836 7.69348 30.9836 8.19645V21.8936C30.9836 26.9233 26.9037 31.0008 21.8708 31.0008H8.20156C7.69827 31.0008 7.29028 30.593 7.29028 30.09V23.715C7.29028 21.7032 8.92226 20.0722 10.9354 20.0722H16.4031C18.4163 20.0722 20.0482 18.4412 20.0482 16.4293V10.9286C20.0482 8.91669 21.6802 7.28574 23.6934 7.28574H30.0724Z" fill="#E54545"/>
<path d="M22.1259 33.4414H20.0481V42.8036C20.0481 43.3066 20.4561 43.7144 20.9594 43.7144H27.3384C29.3515 43.7144 30.9835 42.0834 30.9835 40.0714V34.5708C30.9835 32.5588 32.6155 30.9278 34.6287 30.9278H40.0963C42.1095 30.9278 43.7414 29.297 43.7414 27.285V20.91C43.7414 20.4071 43.3335 19.9994 42.8302 19.9994H33.4258V22.1486C33.4258 28.3855 28.3666 33.4414 22.1259 33.4414Z" fill="#E54545"/>
</svg>
