<svg width="63" height="61" viewBox="0 0 63 61" fill="none" xmlns="http://www.w3.org/2000/svg">
<path d="M62.6583 37.123L57.2878 13.8509C57.1434 13.2488 56.8668 12.6862 56.478 12.2037C56.0893 11.7212 55.598 11.3308 55.0397 11.0607L33.3008 0.706258C32.7373 0.438032 32.1209 0.298828 31.4966 0.298828C30.8724 0.298828 30.256 0.438032 29.6925 0.706258L7.95796 11.0662C7.39949 11.3362 6.90807 11.7265 6.51919 12.209C6.1303 12.6914 5.85365 13.254 5.7092 13.8561L0.347299 37.1276C0.215055 37.7158 0.214634 38.3259 0.346066 38.9143C0.384773 39.0936 0.435335 39.2701 0.497422 39.4427C0.602354 39.7372 0.741287 40.0185 0.911417 40.281C0.985092 40.3932 1.06277 40.5024 1.14724 40.6082L16.1916 59.2683C16.2573 59.3495 16.3297 59.4236 16.4016 59.499C16.6376 59.7498 16.9042 59.9701 17.195 60.1549C17.5629 60.3859 17.9638 60.5598 18.384 60.6706C18.7286 60.7649 19.084 60.8138 19.4413 60.8161H19.6753L43.5668 60.8106C43.712 60.8099 43.8571 60.8014 44.0014 60.785C44.2084 60.7617 44.4134 60.7228 44.6146 60.6688C44.7587 60.6309 44.9008 60.5856 45.0403 60.5329C45.1491 60.4914 45.2576 60.4498 45.3624 60.3997C45.5194 60.3247 45.6716 60.2403 45.8183 60.1469C46.1969 59.9095 46.5339 59.6119 46.8162 59.2659L47.2749 58.6969L61.8553 40.6021C62.1348 40.2525 62.3543 39.8591 62.5051 39.4381C62.5681 39.2649 62.6196 39.0878 62.6593 38.9079C62.791 38.3196 62.7906 37.7095 62.658 37.1215L62.6583 37.123ZM40.1099 46.1741C40.171 46.3531 40.2434 46.528 40.3266 46.6979C40.1936 46.93 40.1574 47.205 40.2258 47.4636C40.5422 48.1862 40.9285 48.8763 41.3794 49.524C41.6317 49.8552 41.8646 50.2006 42.077 50.5585C42.1294 50.6554 42.1978 50.8055 42.2474 50.9079C42.3411 51.064 42.4009 51.238 42.4231 51.4186C42.4454 51.5992 42.4294 51.7824 42.3764 51.9565C42.3234 52.1306 42.2344 52.2917 42.1153 52.4294C41.9961 52.5672 41.8493 52.6785 41.6845 52.7562C41.5196 52.834 41.3402 52.8765 41.1579 52.8809C40.9755 52.8854 40.7943 52.8517 40.6258 52.7821C40.4573 52.7125 40.3052 52.6085 40.1794 52.4767C40.0537 52.345 39.9569 52.1884 39.8954 52.0171C39.8458 51.9157 39.7767 51.7803 39.7345 51.6844C39.5858 51.2955 39.4597 50.8983 39.3568 50.4949C39.1313 49.7401 38.8323 49.0091 38.4641 48.3124C38.304 48.0969 38.0656 47.9526 37.8001 47.9104C37.7585 47.8388 37.6044 47.5571 37.5218 47.4113C33.6519 48.8733 29.3779 48.8624 25.5156 47.3806L25.2212 47.9129C25.0111 47.9454 24.8157 48.0403 24.6605 48.1854C24.2169 48.9117 23.8777 49.6966 23.6531 50.517C23.5512 50.9205 23.4258 51.3176 23.2776 51.7065C23.236 51.8019 23.1663 51.9353 23.1167 52.0365V52.0393L23.1146 52.0417C23.0532 52.2133 22.9564 52.3701 22.8305 52.502C22.7047 52.6339 22.5525 52.7381 22.3838 52.8077C22.215 52.8774 22.0336 52.9109 21.8511 52.9063C21.6686 52.9017 21.489 52.859 21.3241 52.7809C21.1592 52.7028 21.0125 52.5911 20.8935 52.4529C20.7745 52.3148 20.6858 52.1533 20.6332 51.9789C20.5806 51.8045 20.5653 51.621 20.5881 51.4403C20.611 51.2596 20.6715 51.0856 20.7659 50.9297C20.8149 50.8267 20.8806 50.6776 20.9324 50.5807C21.1446 50.2218 21.3774 49.8755 21.6297 49.5434C22.0887 48.8786 22.483 48.1715 22.8072 47.4319C22.8417 47.1812 22.8014 46.9259 22.6913 46.6979L22.9281 46.132C19.3673 44.0355 16.6987 40.7115 15.4256 36.7872L14.8587 36.8834C14.6388 36.7277 14.3795 36.6366 14.1102 36.6205C13.3345 36.7686 12.5751 36.9916 11.8427 37.2863C11.4624 37.4569 11.0726 37.6058 10.6753 37.7322C10.5813 37.758 10.4456 37.7839 10.3384 37.8072C10.3297 37.8103 10.3223 37.814 10.3137 37.8162C10.3071 37.8171 10.3004 37.8178 10.2937 37.818C10.121 37.8747 9.93834 37.8947 9.75743 37.8769C9.57653 37.8591 9.40134 37.8038 9.24309 37.7146C9.08484 37.6253 8.94701 37.5041 8.83843 37.3587C8.72984 37.2132 8.65289 37.0468 8.6125 36.87C8.57211 36.6931 8.56918 36.5099 8.60388 36.3318C8.63859 36.1538 8.71017 35.985 8.81404 35.8362C8.91791 35.6874 9.05179 35.5618 9.2071 35.4676C9.36241 35.3733 9.53574 35.3125 9.71598 35.2889L9.73478 35.2843L9.74619 35.2812C9.85501 35.2557 9.99434 35.2197 10.0936 35.2006C10.5075 35.1433 10.9243 35.1098 11.3421 35.1004C12.1299 35.049 12.9108 34.9211 13.6737 34.7184C13.8999 34.5748 14.0909 34.3825 14.2329 34.1557L14.7776 33.997C14.1866 29.9011 15.132 25.7318 17.4327 22.2885L17.0156 21.9176C17.0004 21.6484 16.9098 21.3889 16.7542 21.1685C16.155 20.6547 15.507 20.2004 14.8192 19.8123C14.4479 19.6234 14.0878 19.4133 13.7406 19.1831C13.6617 19.1244 13.5569 19.0361 13.4712 18.9666L13.4518 18.9531C13.1559 18.741 12.9561 18.4207 12.8962 18.0622C12.8362 17.7037 12.9209 17.336 13.1318 17.0396C13.2564 16.8875 13.4152 16.7667 13.5953 16.6872C13.7755 16.6077 13.9718 16.5717 14.1685 16.582C14.4996 16.5962 14.8174 16.7158 15.0754 16.9234C15.1639 16.9926 15.285 17.0851 15.3636 17.1525C15.6665 17.4382 15.9526 17.7412 16.2206 18.0597C16.7523 18.6425 17.3398 19.1721 17.9746 19.641C18.2125 19.7658 18.4899 19.7926 18.7474 19.7157C18.9024 19.8285 19.0588 19.9394 19.2166 20.0485C21.5028 17.6243 24.4631 15.9371 27.7175 15.2037C28.4921 15.0287 29.278 14.9082 30.0696 14.843L30.1004 14.2943C30.3024 14.1152 30.449 13.8822 30.5227 13.6227C30.5511 12.8353 30.5026 12.0469 30.3778 11.2689C30.2951 10.8611 30.2358 10.449 30.2003 10.0345C30.1969 9.94006 30.2021 9.80967 30.2033 9.70204C30.2033 9.68974 30.2003 9.67774 30.2003 9.66575C30.1818 9.48431 30.2017 9.30102 30.2586 9.12771C30.3155 8.9544 30.4082 8.79493 30.5308 8.65958C30.6533 8.52424 30.8029 8.41603 30.97 8.34194C31.137 8.26784 31.3178 8.22952 31.5006 8.22943C31.6834 8.22935 31.8642 8.2675 32.0313 8.34143C32.1984 8.41537 32.3482 8.52344 32.4708 8.65867C32.5935 8.7939 32.6864 8.95328 32.7434 9.12654C32.8005 9.29979 32.8206 9.48306 32.8023 9.66452C32.8023 9.77831 32.8091 9.9293 32.8051 10.0336C32.7695 10.448 32.7099 10.8601 32.6266 11.2677C32.5011 12.0458 32.4517 12.8344 32.4792 13.6221C32.5307 13.8854 32.6832 14.1183 32.9043 14.271C32.9089 14.3648 32.9244 14.6778 32.9358 14.8503C37.0486 15.2235 40.8859 17.0732 43.7348 20.0559L44.2299 19.7031C44.4957 19.7486 44.7691 19.719 45.019 19.6176C45.6537 19.1479 46.2412 18.6177 46.773 18.0345C47.0416 17.7158 47.3284 17.4128 47.6321 17.1273C47.712 17.059 47.8325 16.9674 47.9207 16.8979C48.0512 16.7694 48.2074 16.6699 48.379 16.6055C48.5506 16.5412 48.7339 16.5137 48.9169 16.5246C49.0999 16.5355 49.2786 16.5847 49.4413 16.669C49.604 16.7533 49.7471 16.8707 49.8614 17.0138C49.9757 17.1568 50.0585 17.3222 50.1045 17.4993C50.1506 17.6763 50.1588 17.861 50.1286 18.0414C50.0984 18.2218 50.0306 18.3939 49.9294 18.5465C49.8283 18.699 49.6961 18.8286 49.5415 18.9269C49.4543 18.9974 49.339 19.0955 49.2551 19.1576C48.9072 19.3879 48.5463 19.598 48.1741 19.7868C47.4865 20.1751 46.8384 20.6293 46.2391 21.143C46.0646 21.3468 45.977 21.6106 45.995 21.878C45.9225 21.9444 45.6682 22.1692 45.5335 22.291C47.8407 25.7219 48.8051 29.8784 48.2437 33.9718L48.769 34.1243C48.9002 34.3601 49.0944 34.555 49.33 34.6874C50.0934 34.8903 50.8747 35.0185 51.663 35.0703C52.0803 35.0798 52.4967 35.1131 52.9102 35.1699C53.0196 35.1899 53.1778 35.2335 53.2893 35.2591C53.4696 35.2827 53.6429 35.3436 53.7982 35.4379C53.9535 35.5322 54.0873 35.6579 54.1911 35.8067C54.2949 35.9556 54.3664 36.1245 54.4011 36.3025C54.4357 36.4806 54.4327 36.6639 54.3922 36.8407C54.3517 37.0175 54.2747 37.1839 54.166 37.3293C54.0573 37.4747 53.9194 37.5959 53.7611 37.685C53.6028 37.7742 53.4276 37.8294 53.2467 37.8471C53.0657 37.8648 52.8831 37.8446 52.7104 37.7879L52.6916 37.7854C52.683 37.7833 52.675 37.7786 52.666 37.7765C52.5588 37.7531 52.4241 37.7297 52.33 37.7051C51.9328 37.5778 51.5432 37.4277 51.1633 37.2555C50.4302 36.9606 49.67 36.7376 48.8935 36.5897C48.6248 36.5813 48.3635 36.6781 48.1654 36.8594C47.9805 36.8244 47.7951 36.792 47.6093 36.7623C46.3514 40.711 43.6824 44.0608 40.1099 46.1741Z" fill="black"/>
</svg>
